<svg id="edu-logo" xmlns="http://www.w3.org/2000/svg" xmlns:xlink="http://www.w3.org/1999/xlink" width="160.303" height="127.821" viewBox="0 0 160.303 127.821">
  <defs>
    <clipPath id="clip-path">
      <rect id="사각형_12886" data-name="사각형 12886" width="160.303" height="127.821" fill="none"/>
    </clipPath>
  </defs>
  <g id="그룹_12587" data-name="그룹 12587" clip-path="url(#clip-path)">
    <path id="패스_3525" data-name="패스 3525" d="M170.782,12.013a19.836,19.836,0,0,0-3.059,1.488c-.761.469-1.491.994-1.949,1.323-.609.437-1.083.8-1.453,1.086-.634.489-1.067.822-1.63,1.3-.472.4-1,.851-1.641,1.5-.395.4-.733.793-1.394,1.559-.785.911-1.337,1.58-1.465,1.736-.454.556-.779.953-1.193,1.5-.219.289-.734.973-1.287,1.819s-.917,1.515-1.63,2.835c-.761,1.409-1.142,2.114-1.582,3.118-.493,1.125-.8,2.021-.921,2.385a33.633,33.633,0,0,0-.992,3.9c-.137.667-.5,2.407-.685,3.968a32.676,32.676,0,0,0,.449,9.661,36.011,36.011,0,0,0,2.008,7.535,35.266,35.266,0,0,0,3.472,6.661,35.89,35.89,0,0,0,4.464,5.456A39.237,39.237,0,0,0,165.254,75a34.572,34.572,0,0,0,5.173,3.118,33.213,33.213,0,0,0,5.362,2.055,60.253,60.253,0,0,0,6.755,1.2c4.345.671,5.527.236,5.527.236s-1.523-3.313-1.819-3.815a25.172,25.172,0,0,0-2.368-3.275l-.963-1.2-2.055-.165a25.765,25.765,0,0,1-4.181-.78,24.7,24.7,0,0,1-4.842-2.055,33.79,33.79,0,0,1-4.535-2.622,31.78,31.78,0,0,1-3.968-3.307,31.532,31.532,0,0,1-4.606-5.22,29.563,29.563,0,0,1-3.425-6.756,36.57,36.57,0,0,1-1.7-6.283,32.163,32.163,0,0,1-.591-6.306,29.567,29.567,0,0,1,1.158-8.031,29.172,29.172,0,0,1,2.858-6.425,32.356,32.356,0,0,1,3.543-5.078,32.6,32.6,0,0,1,3.023-3.024c1.113-.979,2.014-1.641,3-2.362,2.609-1.907,4.181-2.894,4.181-2.894" transform="translate(-107.474 -8.624)" fill="#d04741"/>
    <path id="패스_3526" data-name="패스 3526" d="M190.567,126.753a26.421,26.421,0,0,0,.567,5.008,27.031,27.031,0,0,0,2.764,7.11,28.416,28.416,0,0,0,6.047,7.322,30.57,30.57,0,0,0,5.173,3.779,19.082,19.082,0,0,0,3.8,1.654s-1.172-2.074-2.834-5.6a43.411,43.411,0,0,1-2.468-6.295,31.352,31.352,0,0,1-6.035-4.145,23.392,23.392,0,0,1-4.842-5.267c-1.355-2.073-2.173-3.567-2.173-3.567" transform="translate(-136.802 -90.992)" fill="#d04741"/>
    <path id="패스_3527" data-name="패스 3527" d="M215.675,113.428a3.632,3.632,0,1,1-3.632-3.632,3.631,3.631,0,0,1,3.632,3.632" transform="translate(-149.612 -78.819)" fill="#d04741"/>
    <path id="패스_3528" data-name="패스 3528" d="M251.055,86.693a42.038,42.038,0,0,0-1.807,4.128,39.913,39.913,0,0,0-1.931,6.749,29.768,29.768,0,0,0-.3,7,31.915,31.915,0,0,0,1.488,7.387,29.044,29.044,0,0,0,2.267,5.7,33.923,33.923,0,0,0,3.118,4.659,43.2,43.2,0,0,0,3.454,4.163,19.642,19.642,0,0,1,2.25,2.409,11.856,11.856,0,0,1,1.86,3.88,22.631,22.631,0,0,0,.974-7.263,33.258,33.258,0,0,0-.974-6.023,86.212,86.212,0,0,0-3.59-10.552c-1.249-3.289-1.873-4.933-2.5-6.236-.731-1.512-1.5-2.895-2.563-5.421a18.552,18.552,0,0,1-1.169-3.212,26.174,26.174,0,0,1-.425-5.007,18.8,18.8,0,0,0-.148-2.362" transform="translate(-177.266 -62.234)" fill="#d04741"/>
    <path id="패스_3529" data-name="패스 3529" d="M276.53,42.111a46.632,46.632,0,0,0,1.772,6.7c.8,2.376,2.129,4.593,4.748,8.929,2.33,3.857,2.6,3.944,4.748,7.618a49.35,49.35,0,0,1,3.72,7.3,22.835,22.835,0,0,1,1.7,5.811,20.518,20.518,0,0,1-.638,8.007,30.592,30.592,0,0,1-2.905,6.98,36.06,36.06,0,0,1-3.118,4.783,35.269,35.269,0,0,0,.354-8.042c-.214-3.249-1.277-5.851-3.4-11.054-1.375-3.366-1.539-3.192-4.075-9.141-.867-2.035-1.693-4.039-2.586-6.626a42.125,42.125,0,0,1-1.453-4.641c-.71-3.309-.478-5.893-.036-10.417a51.755,51.755,0,0,1,1.169-6.2" transform="translate(-197.373 -30.23)" fill="#253851"/>
    <path id="패스_3530" data-name="패스 3530" d="M336.326,82.422a61.674,61.674,0,0,1,2.905,5.492,20.073,20.073,0,0,1,1.948,6.378s3.807-5.2,5.031-9.956a28.725,28.725,0,0,0,.036-14.243,11.536,11.536,0,0,0-1.524-3.366,16.553,16.553,0,0,1-1.063,6.554,15.3,15.3,0,0,1-3.012,4.712,49.318,49.318,0,0,1-4.322,4.429" transform="translate(-241.438 -47.9)" fill="#253851"/>
    <path id="패스_3531" data-name="패스 3531" d="M303.787,57.61a60.105,60.105,0,0,1-2.15,6.118,18.216,18.216,0,0,1-4.275,6.283,37.781,37.781,0,0,0,9.472-5.716,39.275,39.275,0,0,0,7.582-8.645,35.9,35.9,0,0,0,4.464-10.417,36.941,36.941,0,0,0,.969-10.156,37.344,37.344,0,0,0-2.976-13.322,36.118,36.118,0,0,0-7.181-10.511,37.341,37.341,0,0,0-5.952-5.149A36.427,36.427,0,0,0,285.34,0,36.362,36.362,0,0,1,295.1,2.551,33.265,33.265,0,0,1,303.244,7.2a31.508,31.508,0,0,1,5.315,5.433,28.8,28.8,0,0,1,5.6,10.275,30.85,30.85,0,0,1,.921,4.866,38.214,38.214,0,0,1,.236,7.322,30.733,30.733,0,0,1-2.173,9.661,25.972,25.972,0,0,1-5.456,8.763c-1.8,1.85-3.9,4.086-3.9,4.086" transform="translate(-204.836 0)" fill="#253851"/>
    <path id="패스_3532" data-name="패스 3532" d="M322.763,74.481a3.632,3.632,0,1,1-3.632-3.632,3.632,3.632,0,0,1,3.632,3.632" transform="translate(-226.487 -50.86)" fill="#253851"/>
    <path id="패스_3533" data-name="패스 3533" d="M14.575,333.315v-6.132H2.643v-2.437H8.626v-3.192H0v-2.414H14.358q.171-2.689.172-4.988H3.215v-2.414h14.2q0,2.94-.286,7.4h3.352v2.414H11.486v3.192h5.972v8.569Z" transform="translate(0 -223.787)"/>
    <path id="패스_3534" data-name="패스 3534" d="M85.034,327.235l-2.151-2.014q7.4-4.061,8.946-10.914H84.153v-2.414H95.09q-.9,9.7-10.056,15.341m15.707-6.132v10.96H97.859V309.994h2.883v8.695h3.421V321.1Z" transform="translate(-59.499 -222.535)"/>
    <path id="패스_3535" data-name="패스 3535" d="M173.262,322.385a6.011,6.011,0,0,1-4.273-1.613,5.876,5.876,0,0,1-.006-8.306,6.534,6.534,0,0,1,8.557-.012,5.9,5.9,0,0,1-.006,8.329,6.034,6.034,0,0,1-4.273,1.6m0-9.175a3.005,3.005,0,0,0-2.294.915,4.057,4.057,0,0,0,0,5.005,3,3,0,0,0,2.294.921,3.038,3.038,0,0,0,2.317-.927,4.012,4.012,0,0,0,.012-4.988,3.03,3.03,0,0,0-2.328-.927M170.894,331.3v-7.528h2.883v5.114h11.532V331.3Zm13.8-12.333v6.922h-2.849V309.995h2.849v6.555h3.375v2.414Z" transform="translate(-120.076 -222.535)"/>
    <path id="패스_3536" data-name="패스 3536" d="M260.269,323.026a12.727,12.727,0,0,1-4.919-4.153,10.155,10.155,0,0,1-2.105,2.734,11.337,11.337,0,0,1-2.883,2.162l-2.036-2.014a9.122,9.122,0,0,0,3.907-2.86,6.36,6.36,0,0,0,1.6-4v-1.27h-4.541v-2.379h11.852v2.379h-4.427V314.8a5.227,5.227,0,0,0,1.522,3.632,8.943,8.943,0,0,0,3.867,2.408ZM253,331.32v-7.379h2.883v4.965h11.783v2.414Zm11.623-5.537v-7.848h-4.29v-2.288h4.29v-5.651h2.814v15.788Z" transform="translate(-178.265 -222.535)"/>
    <path id="패스_3537" data-name="패스 3537" d="M332.181,333.911V331.52h4.611V324.05h2.86v7.471h2.585V324.05h2.849v7.471h7.573v2.391Zm17.835-12.161a68.893,68.893,0,0,1-.446,7.265l-2.791-.24a62.573,62.573,0,0,0,.355-7.047v-2.551H334.709v-2.368h15.307Z" transform="translate(-238.462 -227.426)"/>
    <path id="패스_3538" data-name="패스 3538" d="M429.824,332.355v-4.988H417.95v-2.414h2.62v-2.1h-5.342v-2.414H435.7v2.414h-5.343v2.1h2.345v7.4ZM425.466,319.3a10.473,10.473,0,0,1-5.451-1.213,3.628,3.628,0,0,1-.023-6.47,12.907,12.907,0,0,1,10.948,0,3.628,3.628,0,0,1-.023,6.47,10.472,10.472,0,0,1-5.451,1.213m0-6.624a7.382,7.382,0,0,0-3.346.612,1.62,1.62,0,0,0,.034,3.124,9.54,9.54,0,0,0,6.647.006,1.634,1.634,0,0,0,.023-3.135,7.427,7.427,0,0,0-3.358-.606m2.082,10.171h-4.164v2.1h4.164Z" transform="translate(-298.078 -222.827)"/>
    <path id="패스_3539" data-name="패스 3539" d="M513,321.55q-2.517.171-5.034.275v4.6h-2.791v-4.484q-3.764.149-6.258.148l-.4-2.482q8.077,0,14.289-.423Zm-7.219-3.055a7.061,7.061,0,0,1-4.136-1.11,3.427,3.427,0,0,1-1.585-2.94,3.387,3.387,0,0,1,1.607-2.928,8.349,8.349,0,0,1,8.248-.017,3.538,3.538,0,0,1-.034,5.892,7.055,7.055,0,0,1-4.1,1.1m-4,12.871v-6.819h2.86v4.4h12.882v2.414Zm4-18.728a3.656,3.656,0,0,0-2.088.526,1.527,1.527,0,0,0-.772,1.281,1.55,1.55,0,0,0,.755,1.3,3.638,3.638,0,0,0,2.1.526,3.589,3.589,0,0,0,2.093-.538,1.557,1.557,0,0,0,.767-1.293,1.517,1.517,0,0,0-.738-1.31,3.789,3.789,0,0,0-2.122-.5m8.317,14.129v-1.59h-4.267v-2.219H514.1V309.995h2.883v16.771Z" transform="translate(-357.867 -222.535)"/>
    <path id="패스_3540" data-name="패스 3540" d="M6.429,423.271H5.266l-2.54-5.4q-.156-.331-.257-.618H2.453q.031.38.031,1.236v4.785H1.423v-7.977H2.664l2.45,5.262q.187.4.273.618H5.4a11.107,11.107,0,0,1-.031-1.116v-4.763H6.429Z" transform="translate(-1.022 -298.126)"/>
    <path id="패스_3541" data-name="패스 3541" d="M22.942,423.4a2.18,2.18,0,0,1,.718-.36,2.685,2.685,0,0,1,.792-.138q1.662,0,1.662,2.341v3.49H25.076v-.84h-.019a1.333,1.333,0,0,1-1.229.981,1.113,1.113,0,0,1-.94-.463,2.025,2.025,0,0,1-.347-1.244,1.665,1.665,0,0,1,1.4-1.891l1.143-.217q0-1.089-.765-1.089a1.94,1.94,0,0,0-1.373.634Zm1.323,2.731a.786.786,0,0,0-.7.873.852.852,0,0,0,.168.547.547.547,0,0,0,.453.211.752.752,0,0,0,.644-.382,1.705,1.705,0,0,0,.254-.962v-.434Z" transform="translate(-16.181 -303.586)"/>
    <path id="패스_3542" data-name="패스 3542" d="M40.272,424.658a1.325,1.325,0,0,1-.772.195q-1.26,0-1.26-1.853v-2.829H37.56v-1.149h.679v-1.273l1.085-.439v1.712h.948v1.149h-.948v2.563q0,.943.535.943a.6.6,0,0,0,.414-.173Z" transform="translate(-26.963 -299.573)"/>
    <path id="패스_3543" data-name="패스 3543" d="M49.522,414.666a.93.93,0,0,1,.177-.58.551.551,0,0,1,.458-.233.561.561,0,0,1,.456.23.907.907,0,0,1,.183.583.923.923,0,0,1-.181.585.558.558,0,0,1-.458.233.548.548,0,0,1-.456-.239.935.935,0,0,1-.179-.579m.086,1.875h1.085v5.7H49.608Z" transform="translate(-35.55 -297.092)"/>
    <path id="패스_3544" data-name="패스 3544" d="M56.769,425.918a3.665,3.665,0,0,1,.593-2.208,1.888,1.888,0,0,1,1.608-.81,1.8,1.8,0,0,1,1.547.794,3.585,3.585,0,0,1,.568,2.127,3.774,3.774,0,0,1-.587,2.219,1.848,1.848,0,0,1-1.59.832,1.827,1.827,0,0,1-1.561-.8,3.608,3.608,0,0,1-.577-2.154m1.1-.022q0,1.794,1.073,1.794,1.034,0,1.034-1.837,0-1.778-1.038-1.777a.87.87,0,0,0-.788.485,2.672,2.672,0,0,0-.281,1.336" transform="translate(-40.753 -303.586)"/>
    <path id="패스_3545" data-name="패스 3545" d="M79,428.731H77.915v-3.192q0-1.463-.761-1.463a.712.712,0,0,0-.622.4,1.933,1.933,0,0,0-.24,1.011v3.246H75.2v-5.7h1.088v.916H76.3a1.447,1.447,0,0,1,1.331-1.051Q79,422.9,79,425.246Z" transform="translate(-53.986 -303.586)"/>
    <path id="패스_3546" data-name="패스 3546" d="M91.758,423.4a2.18,2.18,0,0,1,.718-.36,2.685,2.685,0,0,1,.792-.138q1.662,0,1.662,2.341v3.49H93.892v-.84h-.019a1.333,1.333,0,0,1-1.229.981,1.113,1.113,0,0,1-.94-.463,2.025,2.025,0,0,1-.347-1.244,1.665,1.665,0,0,1,1.4-1.891l1.143-.217q0-1.089-.765-1.089a1.94,1.94,0,0,0-1.373.634Zm1.323,2.731a.786.786,0,0,0-.7.873.852.852,0,0,0,.168.547.547.547,0,0,0,.453.211.752.752,0,0,0,.644-.382,1.705,1.705,0,0,0,.254-.962v-.434Z" transform="translate(-65.582 -303.586)"/>
    <rect id="사각형_12884" data-name="사각형 12884" width="1.085" height="8.427" transform="translate(30.402 116.718)"/>
    <rect id="사각형_12885" data-name="사각형 12885" width="1.112" height="7.977" transform="translate(35.529 117.168)"/>
    <path id="패스_3547" data-name="패스 3547" d="M138.121,428.731h-1.085v-3.192q0-1.463-.761-1.463a.712.712,0,0,0-.623.4,1.933,1.933,0,0,0-.24,1.011v3.246h-1.088v-5.7h1.088v.916h.012a1.447,1.447,0,0,1,1.33-1.051q1.366,0,1.366,2.346Z" transform="translate(-96.427 -303.586)"/>
    <path id="패스_3548" data-name="패스 3548" d="M151.072,427.267a1.845,1.845,0,0,0,1.2.531q.765,0,.765-.6,0-.417-.6-.7a2.56,2.56,0,0,1-1.12-.81,1.969,1.969,0,0,1-.238-1.021A1.639,1.639,0,0,1,152.8,422.9a2.624,2.624,0,0,1,1.061.233v1.23a1.616,1.616,0,0,0-1.05-.4.718.718,0,0,0-.484.157.522.522,0,0,0-.183.417.757.757,0,0,0,.511.677,6.635,6.635,0,0,1,.855.491,1.305,1.305,0,0,1,.425.539,1.957,1.957,0,0,1,.152.8,1.775,1.775,0,0,1-.5,1.344,1.818,1.818,0,0,1-1.313.477,2.365,2.365,0,0,1-1.21-.3Z" transform="translate(-108.45 -303.586)"/>
    <path id="패스_3549" data-name="패스 3549" d="M165.913,424.658a1.325,1.325,0,0,1-.772.195q-1.26,0-1.26-1.853v-2.829H163.2v-1.149h.679v-1.273l1.085-.439v1.712h.948v1.149h-.948v2.563q0,.943.535.943a.6.6,0,0,0,.414-.173Z" transform="translate(-117.157 -299.573)"/>
    <path id="패스_3550" data-name="패스 3550" d="M175.164,414.666a.928.928,0,0,1,.177-.58.551.551,0,0,1,.458-.233.562.562,0,0,1,.456.23.908.908,0,0,1,.183.583.925.925,0,0,1-.181.585.558.558,0,0,1-.458.233.548.548,0,0,1-.457-.239.935.935,0,0,1-.179-.579m.086,1.875h1.085v5.7H175.25Z" transform="translate(-125.745 -297.092)"/>
    <path id="패스_3551" data-name="패스 3551" d="M184.569,424.658a1.325,1.325,0,0,1-.772.195q-1.261,0-1.26-1.853v-2.829h-.679v-1.149h.679v-1.273l1.085-.439v1.712h.948v1.149h-.948v2.563q0,.943.534.943a.6.6,0,0,0,.414-.173Z" transform="translate(-130.549 -299.573)"/>
    <path id="패스_3552" data-name="패스 3552" d="M197.73,429.075h-1.085V428.2h-.019q-.452,1.019-1.256,1.019-1.44,0-1.44-2.406v-3.43h1.089v3.273q0,1.382.773,1.382a.709.709,0,0,0,.616-.376,1.877,1.877,0,0,0,.238-1.011V423.38h1.085Z" transform="translate(-139.216 -303.931)"/>
    <path id="패스_3553" data-name="패스 3553" d="M212.685,424.658a1.325,1.325,0,0,1-.772.195q-1.261,0-1.26-1.853v-2.829h-.679v-1.149h.679v-1.273l1.085-.439v1.712h.948v1.149h-.948v2.563q0,.943.534.943a.6.6,0,0,0,.414-.173Z" transform="translate(-150.733 -299.573)"/>
    <path id="패스_3554" data-name="패스 3554" d="M225.1,426.308h-2.739q.066,1.452,1.186,1.452a1.736,1.736,0,0,0,1.217-.5v1.149a2.252,2.252,0,0,1-1.463.46,1.709,1.709,0,0,1-1.489-.77,3.744,3.744,0,0,1-.532-2.151,3.869,3.869,0,0,1,.572-2.2,1.684,1.684,0,0,1,1.43-.848,1.515,1.515,0,0,1,1.338.731,3.636,3.636,0,0,1,.48,2.01Zm-1.026-.992q0-1.355-.8-1.355a.722.722,0,0,0-.591.368,2.079,2.079,0,0,0-.318.986Z" transform="translate(-158.853 -303.586)"/>
    <path id="패스_3555" data-name="패스 3555" d="M246.814,425.918a3.667,3.667,0,0,1,.593-2.208,1.889,1.889,0,0,1,1.607-.81,1.8,1.8,0,0,1,1.547.794,3.585,3.585,0,0,1,.568,2.127,3.774,3.774,0,0,1-.588,2.219,1.847,1.847,0,0,1-1.59.832,1.827,1.827,0,0,1-1.561-.8,3.608,3.608,0,0,1-.577-2.154m1.1-.022q0,1.794,1.073,1.794,1.034,0,1.034-1.837,0-1.778-1.038-1.777a.872.872,0,0,0-.788.485,2.676,2.676,0,0,0-.281,1.336" transform="translate(-177.18 -303.586)"/>
    <path id="패스_3556" data-name="패스 3556" d="M266.292,414.549a.866.866,0,0,0-.456-.135q-.632,0-.632,1v.683h.94v1.149h-.94v4.547h-1.085v-4.547h-.694V416.1h.694v-.764a2.464,2.464,0,0,1,.433-1.528,1.372,1.372,0,0,1,1.147-.569,1.43,1.43,0,0,1,.593.1Z" transform="translate(-189.104 -296.65)"/>
    <path id="패스_3557" data-name="패스 3557" d="M284.708,421.049a2.032,2.032,0,0,0,1.565.786,1.089,1.089,0,0,0,.792-.258.9.9,0,0,0,.261-.675,1.119,1.119,0,0,0-.218-.667,3.838,3.838,0,0,0-1.057-.8,2.967,2.967,0,0,1-1.036-1,2.552,2.552,0,0,1-.322-1.3,2.3,2.3,0,0,1,.6-1.688,2.114,2.114,0,0,1,1.577-.609,2.664,2.664,0,0,1,1.377.3v1.479a1.883,1.883,0,0,0-1.346-.531,1.119,1.119,0,0,0-.751.244.835.835,0,0,0-.287.672,1.056,1.056,0,0,0,.2.623,3.4,3.4,0,0,0,.932.732,3.273,3.273,0,0,1,1.171,1.07,2.614,2.614,0,0,1,.328,1.341,2.365,2.365,0,0,1-.58,1.721,2.168,2.168,0,0,1-1.625.593,2.593,2.593,0,0,1-1.581-.45Z" transform="translate(-204.372 -297.795)"/>
    <path id="패스_3558" data-name="패스 3558" d="M300.639,423.4a2.179,2.179,0,0,1,.717-.36,2.685,2.685,0,0,1,.792-.138q1.662,0,1.662,2.341v3.49h-1.038v-.84h-.019a1.334,1.334,0,0,1-1.229.981,1.114,1.114,0,0,1-.94-.463,2.027,2.027,0,0,1-.347-1.244,1.665,1.665,0,0,1,1.4-1.891l1.143-.217q0-1.089-.765-1.089a1.939,1.939,0,0,0-1.373.634Zm1.322,2.731a.786.786,0,0,0-.7.873.853.853,0,0,0,.168.547.548.548,0,0,0,.453.211.752.752,0,0,0,.644-.382,1.705,1.705,0,0,0,.254-.962v-.434Z" transform="translate(-215.531 -303.586)"/>
    <path id="패스_3559" data-name="패스 3559" d="M318.208,414.549a.867.867,0,0,0-.457-.135q-.632,0-.632,1v.683h.94v1.149h-.94v4.547h-1.085v-4.547h-.694V416.1h.694v-.764a2.464,2.464,0,0,1,.433-1.528,1.371,1.371,0,0,1,1.147-.569,1.431,1.431,0,0,1,.593.1Z" transform="translate(-226.372 -296.65)"/>
    <path id="패스_3560" data-name="패스 3560" d="M330.181,426.308h-2.739q.066,1.452,1.186,1.452a1.736,1.736,0,0,0,1.217-.5v1.149a2.252,2.252,0,0,1-1.463.46,1.709,1.709,0,0,1-1.489-.77,3.744,3.744,0,0,1-.532-2.151,3.869,3.869,0,0,1,.572-2.2,1.684,1.684,0,0,1,1.43-.848,1.515,1.515,0,0,1,1.338.731,3.636,3.636,0,0,1,.48,2.01Zm-1.026-.992q0-1.355-.8-1.355a.722.722,0,0,0-.591.368,2.079,2.079,0,0,0-.318.986Z" transform="translate(-234.284 -303.586)"/>
    <path id="패스_3561" data-name="패스 3561" d="M344.092,424.658a1.325,1.325,0,0,1-.773.195q-1.261,0-1.26-1.853v-2.829h-.679v-1.149h.679v-1.273l1.085-.439v1.712h.948v1.149h-.948v2.563q0,.943.534.943a.605.605,0,0,0,.414-.173Z" transform="translate(-245.066 -299.573)"/>
    <path id="패스_3562" data-name="패스 3562" d="M355.99,423.379l-1.728,6.286q-.573,2.086-1.7,2.086a1.566,1.566,0,0,1-.66-.125V430.4a.835.835,0,0,0,.507.174q.488,0,.7-.694l.25-.813-1.647-5.685h1.206l.862,3.734q.039.179.105.667h.016a5.818,5.818,0,0,1,.117-.656l.889-3.745Z" transform="translate(-252.481 -303.93)"/>
    <path id="패스_3563" data-name="패스 3563" d="M378.154,423.4a2.178,2.178,0,0,1,.717-.36,2.685,2.685,0,0,1,.792-.138q1.662,0,1.662,2.341v3.49h-1.038v-.84h-.019a1.334,1.334,0,0,1-1.229.981,1.114,1.114,0,0,1-.94-.463,2.027,2.027,0,0,1-.347-1.244,1.665,1.665,0,0,1,1.4-1.891l1.143-.217q0-1.089-.765-1.089a1.939,1.939,0,0,0-1.373.634Zm1.322,2.731a.786.786,0,0,0-.7.873.853.853,0,0,0,.168.547.548.548,0,0,0,.453.211.752.752,0,0,0,.644-.382,1.706,1.706,0,0,0,.254-.962v-.434Z" transform="translate(-271.176 -303.586)"/>
    <path id="패스_3564" data-name="패스 3564" d="M398.005,428.731h-1.085v-3.192q0-1.463-.761-1.463a.711.711,0,0,0-.622.4,1.934,1.934,0,0,0-.24,1.011v3.246h-1.088v-5.7H395.3v.916h.011a1.448,1.448,0,0,1,1.331-1.051q1.366,0,1.366,2.346Z" transform="translate(-282.99 -303.586)"/>
    <path id="패스_3565" data-name="패스 3565" d="M414.666,422.126h-1.085v-.84h-.019a1.369,1.369,0,0,1-2.544.211,4.038,4.038,0,0,1-.464-2.092,4.308,4.308,0,0,1,.519-2.257,1.542,1.542,0,0,1,1.35-.853,1.162,1.162,0,0,1,1.139.829h.019V413.7h1.085Zm-1.069-3.257a1.766,1.766,0,0,0-.265-1,.783.783,0,0,0-.667-.4.822.822,0,0,0-.74.51,2.961,2.961,0,0,0-.271,1.382,2.557,2.557,0,0,0,.261,1.271.791.791,0,0,0,.706.452.8.8,0,0,0,.7-.471,2.373,2.373,0,0,0,.273-1.2Z" transform="translate(-294.724 -296.981)"/>
    <path id="패스_3566" data-name="패스 3566" d="M442.852,423.27h-3.324v-7.977h3.2v1.284h-2.084v2.032h1.935v1.279h-1.935v2.1h2.212Z" transform="translate(-315.522 -298.126)"/>
    <path id="패스_3567" data-name="패스 3567" d="M457.607,422.126h-1.085v-.84H456.5a1.369,1.369,0,0,1-2.544.211,4.039,4.039,0,0,1-.464-2.092,4.308,4.308,0,0,1,.519-2.257,1.542,1.542,0,0,1,1.35-.853,1.162,1.162,0,0,1,1.139.829h.019V413.7h1.085Zm-1.069-3.257a1.766,1.766,0,0,0-.265-1,.783.783,0,0,0-.667-.4.822.822,0,0,0-.739.51,2.96,2.96,0,0,0-.271,1.382,2.557,2.557,0,0,0,.262,1.271.791.791,0,0,0,.706.452.8.8,0,0,0,.7-.471,2.373,2.373,0,0,0,.273-1.2Z" transform="translate(-325.55 -296.981)"/>
    <path id="패스_3568" data-name="패스 3568" d="M475.661,429.075h-1.085V428.2h-.019q-.452,1.019-1.256,1.019-1.44,0-1.44-2.406v-3.43h1.089v3.273q0,1.382.772,1.382a.709.709,0,0,0,.616-.376,1.877,1.877,0,0,0,.238-1.011V423.38h1.085Z" transform="translate(-338.734 -303.931)"/>
    <path id="패스_3569" data-name="패스 3569" d="M491.726,428.509a1.841,1.841,0,0,1-1.205.363,1.764,1.764,0,0,1-1.493-.788,3.434,3.434,0,0,1-.572-2.062,3.791,3.791,0,0,1,.613-2.287,1.927,1.927,0,0,1,1.635-.835,1.658,1.658,0,0,1,1.022.271V424.5a1.255,1.255,0,0,0-.913-.423,1.061,1.061,0,0,0-.913.5,2.321,2.321,0,0,0-.343,1.341,2.28,2.28,0,0,0,.324,1.306,1.023,1.023,0,0,0,.889.472,1.391,1.391,0,0,0,.956-.434Z" transform="translate(-350.647 -303.586)"/>
    <path id="패스_3570" data-name="패스 3570" d="M502.467,423.4a2.18,2.18,0,0,1,.717-.36,2.685,2.685,0,0,1,.792-.138q1.662,0,1.662,2.341v3.49H504.6v-.84h-.019a1.334,1.334,0,0,1-1.229.981,1.113,1.113,0,0,1-.94-.463,2.027,2.027,0,0,1-.347-1.244,1.665,1.665,0,0,1,1.4-1.891l1.143-.217q0-1.089-.765-1.089a1.939,1.939,0,0,0-1.373.634Zm1.322,2.731a.786.786,0,0,0-.7.873.853.853,0,0,0,.168.547.548.548,0,0,0,.453.211.752.752,0,0,0,.644-.382,1.706,1.706,0,0,0,.254-.962v-.434Z" transform="translate(-360.416 -303.586)"/>
    <path id="패스_3571" data-name="패스 3571" d="M519.8,424.658a1.325,1.325,0,0,1-.773.195q-1.261,0-1.26-1.853v-2.829h-.679v-1.149h.679v-1.273l1.085-.439v1.712h.948v1.149h-.948v2.563q0,.943.534.943a.6.6,0,0,0,.414-.173Z" transform="translate(-371.198 -299.573)"/>
    <path id="패스_3572" data-name="패스 3572" d="M529.046,414.666a.93.93,0,0,1,.177-.58.551.551,0,0,1,.458-.233.562.562,0,0,1,.457.23.908.908,0,0,1,.183.583.923.923,0,0,1-.181.585.558.558,0,0,1-.459.233.548.548,0,0,1-.456-.239.935.935,0,0,1-.179-.579m.086,1.875h1.085v5.7h-1.085Z" transform="translate(-379.785 -297.092)"/>
    <path id="패스_3573" data-name="패스 3573" d="M536.293,425.918a3.666,3.666,0,0,1,.593-2.208,1.888,1.888,0,0,1,1.607-.81,1.8,1.8,0,0,1,1.547.794,3.585,3.585,0,0,1,.568,2.127,3.774,3.774,0,0,1-.588,2.219,1.847,1.847,0,0,1-1.589.832,1.827,1.827,0,0,1-1.561-.8,3.608,3.608,0,0,1-.577-2.154m1.1-.022q0,1.794,1.073,1.794,1.034,0,1.034-1.837,0-1.778-1.038-1.777a.871.871,0,0,0-.788.485,2.675,2.675,0,0,0-.281,1.336" transform="translate(-384.988 -303.586)"/>
    <path id="패스_3574" data-name="패스 3574" d="M558.524,428.731H557.44v-3.192q0-1.463-.761-1.463a.711.711,0,0,0-.622.4,1.933,1.933,0,0,0-.24,1.011v3.246h-1.088v-5.7h1.088v.916h.012a1.448,1.448,0,0,1,1.331-1.051q1.366,0,1.366,2.346Z" transform="translate(-398.221 -303.586)"/>
  </g>
</svg>
