<svg xmlns="http://www.w3.org/2000/svg" width="45" height="47" viewBox="0 0 45 47">
  <path id="icon_default_uaer" d="M22.034,5A13.858,13.858,0,0,0,29.2-7.1,14.071,14.071,0,0,0,14.947-21.06,14.071,14.071,0,0,0,.7-7.1,13.858,13.858,0,0,0,7.86,5,22.015,22.015,0,0,0-7.553,25.94h3.021A19.224,19.224,0,0,1,14.947,6.859,19.224,19.224,0,0,1,34.426,25.94h3.021A22.015,22.015,0,0,0,22.034,5ZM3.716-7.1a11.077,11.077,0,0,1,11.231-11,11.077,11.077,0,0,1,11.231,11,11.125,11.125,0,0,1-11.231,11A11.125,11.125,0,0,1,3.716-7.1Z" transform="translate(7.553 21.06)" fill="#fff"/>
</svg>
