<svg xmlns="http://www.w3.org/2000/svg" width="104.525" height="137.189" viewBox="0 0 104.525 137.189">
  <path id="icon-lock02" d="M97.459,47.23H90.926V34.164a32.664,32.664,0,1,0-65.328,0V47.23H19.066A13.1,13.1,0,0,0,6,60.3v65.328a13.1,13.1,0,0,0,13.066,13.066H97.459a13.1,13.1,0,0,0,13.066-13.066V60.3A13.1,13.1,0,0,0,97.459,47.23Zm-39.2,58.8A13.066,13.066,0,1,1,71.328,92.959,13.1,13.1,0,0,1,58.262,106.025Zm20.252-58.8h-40.5V34.164a20.252,20.252,0,1,1,40.5,0Z" transform="translate(-6 -1.5)" fill="#4186b9"/>
</svg>
