<svg xmlns="http://www.w3.org/2000/svg" xmlns:xlink="http://www.w3.org/1999/xlink" width="63" height="57.877" viewBox="0 0 63 57.877">
  <defs>
    <clipPath id="clip-path">
      <rect id="사각형_12883" data-name="사각형 12883" width="63" height="57.877" fill="none"/>
    </clipPath>
  </defs>
  <g id="icon-talk" clip-path="url(#clip-path)">
    <path id="패스_3520" data-name="패스 3520" d="M31.5,0C14.1,0,0,11.148,0,24.9c0,8.952,5.975,16.8,14.944,21.186-.659,2.46-2.386,8.912-2.732,10.292-.426,1.713.629,1.69,1.319,1.229.541-.361,8.632-5.86,12.123-8.234a39.912,39.912,0,0,0,5.847.43c17.4,0,31.5-11.151,31.5-24.9S48.9,0,31.5,0" fill="#391b1b"/>
    <path id="패스_3521" data-name="패스 3521" d="M60.081,107.656H50.869a1.567,1.567,0,1,0,0,3.133h2.994v11.035a1.533,1.533,0,0,0,1.528,1.528h.335a1.531,1.531,0,0,0,1.526-1.528V110.789h2.829a1.567,1.567,0,1,0,0-3.133" transform="translate(-41.257 -90.088)" fill="#fae300"/>
    <path id="패스_3522" data-name="패스 3522" d="M211.618,119.274h-4.283V108a1.7,1.7,0,1,0-3.4,0v12.148a1.65,1.65,0,0,0,.026.272,1.422,1.422,0,0,0,1.4,1.695h6.26a1.422,1.422,0,0,0,0-2.845" transform="translate(-170.656 -88.956)" fill="#fae300"/>
    <path id="패스_3523" data-name="패스 3523" d="M276.867,119.791l-4.774-6.269,4.313-4.315a1.5,1.5,0,1,0-2.116-2.115l-5.339,5.339V108a1.7,1.7,0,1,0-3.4,0v12.521a1.7,1.7,0,1,0,3.4,0v-3.863l.971-.969,4.515,5.925a1.52,1.52,0,1,0,2.43-1.827" transform="translate(-222.218 -88.956)" fill="#fae300"/>
    <path id="패스_3524" data-name="패스 3524" d="M126,120.2l-4.591-12.558-.015-.014a2.256,2.256,0,0,0-2.151-1.322,2.191,2.191,0,0,0-2.232,1.581,2.083,2.083,0,0,0-.088.206L112.412,120.2a1.523,1.523,0,1,0,2.873,1.009l.781-2.23h6.283l.781,2.23A1.523,1.523,0,1,0,126,120.2m-8.94-4.066,2.111-6.024c.024,0,.044.007.068.007l2.11,6.018Z" transform="translate(-93.995 -88.956)" fill="#fae300"/>
  </g>
</svg>
