<svg xmlns="http://www.w3.org/2000/svg" width="221.589" height="156.926" viewBox="0 0 221.589 156.926">
  <g id="icon-statute" transform="translate(-1493.009 -2793.799)">
    <g id="그룹_3889" data-name="그룹 3889" transform="translate(1493.009 2848.286)">
      <path id="패스_1412" data-name="패스 1412" d="M648.906,369.976a12.495,12.495,0,0,0,17.664,17.676l81.11-81.1L730,288.873Z" transform="translate(-645.241 -288.873)" fill="#00287a"/>
    </g>
    <g id="그룹_3890" data-name="그룹 3890" transform="translate(1576.194 2806.002)">
      <rect id="사각형_396" data-name="사각형 396" width="45.354" height="41.66" transform="translate(0 32.063) rotate(-44.988)" fill="#00287a"/>
    </g>
    <g id="그룹_3891" data-name="그룹 3891" transform="translate(1563.984 2793.8)">
      <path id="패스_1413" data-name="패스 1413" d="M694.883,287.132A22.68,22.68,0,0,0,662.806,319.2Z" transform="translate(-656.162 -280.489)" fill="#00287a"/>
    </g>
    <g id="그룹_3892" data-name="그룹 3892" transform="translate(1611.213 2841.033)">
      <path id="패스_1414" data-name="패스 1414" d="M666.705,323.1a22.678,22.678,0,0,0,32.071-32.071l-3.276-3.275L663.43,319.815Z" transform="translate(-663.43 -287.757)" fill="#00287a"/>
    </g>
    <g id="그룹_3893" data-name="그룹 3893" transform="translate(1596.638 2922.074)">
      <path id="패스_1415" data-name="패스 1415" d="M763.071,311.718v-11.49h-85.8v11.49H661.188v8.491H779.147v-8.491Z" transform="translate(-661.188 -300.228)" fill="#bfbfbf"/>
    </g>
  </g>
</svg>
