<svg xmlns="http://www.w3.org/2000/svg" width="579.001" height="87.618" viewBox="0 0 579.001 87.618">
  <g id="logotype-b-02" transform="translate(0.001)">
    <g id="그룹_12672" data-name="그룹 12672">
      <path id="패스_3525" data-name="패스 3525" d="M174.957,12.013a23.761,23.761,0,0,0-3.665,1.783c-.911.562-1.787,1.191-2.335,1.585-.73.524-1.3.96-1.741,1.3-.76.585-1.278.984-1.953,1.557-.566.48-1.2,1.02-1.967,1.8-.473.481-.879.95-1.67,1.868-.94,1.091-1.6,1.893-1.755,2.08-.544.666-.934,1.142-1.429,1.8-.262.347-.879,1.166-1.542,2.179s-1.1,1.816-1.953,3.4c-.912,1.689-1.369,2.533-1.9,3.736-.591,1.347-.958,2.421-1.1,2.858a40.315,40.315,0,0,0-1.189,4.67c-.165.8-.594,2.884-.82,4.755a39.151,39.151,0,0,0,.538,11.575,43.149,43.149,0,0,0,2.406,9.028,42.264,42.264,0,0,0,4.16,7.981,43,43,0,0,0,5.349,6.538,47.011,47.011,0,0,0,5.943,4.981,41.425,41.425,0,0,0,6.2,3.736,39.789,39.789,0,0,0,6.424,2.462,72.191,72.191,0,0,0,8.094,1.443c5.206.8,6.622.283,6.622.283s-1.825-3.97-2.179-4.571a30.159,30.159,0,0,0-2.837-3.924L189.5,85.47l-2.462-.2a30.872,30.872,0,0,1-5.01-.934,29.6,29.6,0,0,1-5.8-2.462,40.489,40.489,0,0,1-5.434-3.141,38.073,38.073,0,0,1-4.755-3.962,37.783,37.783,0,0,1-5.519-6.255,35.423,35.423,0,0,1-4.1-8.095,43.815,43.815,0,0,1-2.038-7.528,38.529,38.529,0,0,1-.708-7.556,35.424,35.424,0,0,1,1.387-9.622,34.958,34.958,0,0,1,3.424-7.7,38.768,38.768,0,0,1,4.245-6.085,39.039,39.039,0,0,1,3.622-3.623c1.334-1.173,2.414-1.967,3.594-2.83,3.126-2.285,5.009-3.467,5.009-3.467" transform="translate(-149.712 -7.951)" fill="#fff"/>
      <path id="패스_3526" data-name="패스 3526" d="M190.567,126.753a31.66,31.66,0,0,0,.679,6,32.387,32.387,0,0,0,3.312,8.519,34.046,34.046,0,0,0,7.245,8.773,36.627,36.627,0,0,0,6.2,4.528,22.869,22.869,0,0,0,4.556,1.981s-1.4-2.485-3.4-6.708A52.014,52.014,0,0,1,206.2,142.3a37.562,37.562,0,0,1-7.231-4.967,28.029,28.029,0,0,1-5.8-6.311c-1.624-2.484-2.6-4.273-2.6-4.273" transform="translate(-176.756 -83.905)" fill="#fff"/>
      <path id="패스_3527" data-name="패스 3527" d="M217.115,114.147a4.351,4.351,0,1,1-4.351-4.351,4.351,4.351,0,0,1,4.351,4.351" transform="translate(-188.57 -72.682)" fill="#fff"/>
      <path id="패스_3528" data-name="패스 3528" d="M251.872,86.693a50.369,50.369,0,0,0-2.165,4.946,47.82,47.82,0,0,0-2.314,8.087,35.665,35.665,0,0,0-.361,8.385,38.237,38.237,0,0,0,1.783,8.851,34.8,34.8,0,0,0,2.717,6.835,40.656,40.656,0,0,0,3.736,5.582,51.768,51.768,0,0,0,4.139,4.988,23.527,23.527,0,0,1,2.7,2.887,14.2,14.2,0,0,1,2.229,4.649,27.119,27.119,0,0,0,1.167-8.7,39.863,39.863,0,0,0-1.167-7.217,103.271,103.271,0,0,0-4.3-12.644c-1.5-3.941-2.245-5.91-3-7.472-.876-1.812-1.8-3.468-3.07-6.5a22.231,22.231,0,0,1-1.4-3.849,31.367,31.367,0,0,1-.509-6,22.522,22.522,0,0,0-.177-2.83" transform="translate(-214.068 -57.386)" fill="#fff"/>
      <path id="패스_3529" data-name="패스 3529" d="M276.844,42.111a55.882,55.882,0,0,0,2.123,8.023c.962,2.847,2.551,5.5,5.689,10.7,2.792,4.621,3.118,4.725,5.689,9.127A59.126,59.126,0,0,1,294.8,78.7a27.354,27.354,0,0,1,2.038,6.962,24.584,24.584,0,0,1-.764,9.594,36.657,36.657,0,0,1-3.481,8.363,43.2,43.2,0,0,1-3.736,5.731,42.252,42.252,0,0,0,.425-9.636c-.257-3.893-1.53-7.01-4.076-13.245-1.647-4.033-1.844-3.825-4.882-10.953-1.039-2.438-2.029-4.839-3.1-7.939a50.443,50.443,0,0,1-1.741-5.561c-.851-3.965-.573-7.061-.043-12.481a62.063,62.063,0,0,1,1.4-7.429" transform="translate(-232.61 -27.875)" fill="#fff"/>
      <path id="패스_3530" data-name="패스 3530" d="M336.326,85.532a73.9,73.9,0,0,1,3.481,6.58,24.057,24.057,0,0,1,2.335,7.642s4.562-6.23,6.028-11.929a34.415,34.415,0,0,0,.043-17.066,13.819,13.819,0,0,0-1.825-4.033,19.834,19.834,0,0,1-1.274,7.853,18.325,18.325,0,0,1-3.609,5.646,59.1,59.1,0,0,1-5.179,5.307" transform="translate(-273.242 -44.17)" fill="#fff"/>
      <path id="패스_3531" data-name="패스 3531" d="M307.443,69.027a72.04,72.04,0,0,1-2.576,7.33,21.827,21.827,0,0,1-5.122,7.528,45.272,45.272,0,0,0,11.349-6.849,47.06,47.06,0,0,0,9.085-10.358A43.013,43.013,0,0,0,325.528,54.2a44.258,44.258,0,0,0,1.161-12.169,44.749,44.749,0,0,0-3.566-15.962,43.275,43.275,0,0,0-8.6-12.595A44.738,44.738,0,0,0,307.387,7.3,43.646,43.646,0,0,0,285.34,0a43.569,43.569,0,0,1,11.688,3.056,39.856,39.856,0,0,1,9.764,5.575,37.761,37.761,0,0,1,6.368,6.509,34.514,34.514,0,0,1,6.708,12.311,36.96,36.96,0,0,1,1.1,5.83,45.8,45.8,0,0,1,.283,8.774,36.824,36.824,0,0,1-2.6,11.575,31.116,31.116,0,0,1-6.538,10.5c-2.16,2.217-4.67,4.9-4.67,4.9" transform="translate(-239.492 0)" fill="#fff"/>
      <path id="패스_3532" data-name="패스 3532" d="M324.2,75.2a4.351,4.351,0,1,1-4.351-4.351A4.351,4.351,0,0,1,324.2,75.2" transform="translate(-259.456 -46.899)" fill="#fff"/>
    </g>
    <g id="그룹_12673" data-name="그룹 12673" transform="translate(101 14.92)">
      <path id="패스_3533" data-name="패스 3533" d="M43.638,376.34V357.981H7.913v-7.3H25.827v-9.557H0V333.9H42.988q.513-8.05.514-14.935H9.625v-7.227H52.133q0,8.8-.856,22.162H61.313v7.227H34.39v9.557H52.27V376.34Z" transform="translate(0 -310.266)" fill="#fff"/>
      <path id="패스_3534" data-name="패스 3534" d="M89.323,361.614l-6.44-6.029q22.161-12.159,26.786-32.678H86.686v-7.226h32.746q-2.706,29.046-30.108,45.933m47.029-18.36v32.814h-8.631V309.994h8.631v26.033h10.242v7.227Z" transform="translate(-12.87 -309.994)" fill="#fff"/>
      <path id="패스_3535" data-name="패스 3535" d="M185.216,347.091a18,18,0,0,1-12.794-4.83,17.594,17.594,0,0,1-.017-24.867,19.562,19.562,0,0,1,25.621-.035,17.678,17.678,0,0,1-.017,24.936,18.066,18.066,0,0,1-12.793,4.8m0-27.47a9,9,0,0,0-6.868,2.74,12.146,12.146,0,0,0,0,14.986,8.967,8.967,0,0,0,6.868,2.757,9.1,9.1,0,0,0,6.936-2.774,12.013,12.013,0,0,0,.035-14.935,9.072,9.072,0,0,0-6.971-2.774m-7.09,54.154V351.236h8.632v15.311h34.526v7.227Zm41.309-36.925v20.724h-8.529V310h8.529v19.627h10.1v7.227Z" transform="translate(-25.972 -309.991)" fill="#fff"/>
      <path id="패스_3536" data-name="패스 3536" d="M284.085,349.009a38.11,38.11,0,0,1-14.729-12.434,30.407,30.407,0,0,1-6.3,8.187,33.938,33.938,0,0,1-8.631,6.474l-6.1-6.029a27.314,27.314,0,0,0,11.7-8.563q4.778-5.926,4.778-11.989v-3.8H251.2v-7.124h35.486v7.124H273.433v3.529a15.651,15.651,0,0,0,4.556,10.875,26.774,26.774,0,0,0,11.578,7.209Zm-21.751,24.833V351.75h8.632v14.865h35.28v7.227Zm34.8-16.578v-23.5H284.291v-6.851h12.845V310h8.426v47.269Z" transform="translate(-38.559 -309.991)" fill="#fff"/>
      <path id="패스_3537" data-name="패스 3537" d="M332.181,368.016v-7.159h13.8V338.49h8.563v22.367h7.741V338.49h8.529v22.367h22.674v7.159Zm53.4-36.411a206.244,206.244,0,0,1-1.336,21.751l-8.358-.719a187.3,187.3,0,0,0,1.062-21.1V323.9h-37.2v-7.09h45.83Z" transform="translate(-51.58 -311.046)" fill="#fff"/>
      <path id="패스_3538" data-name="패스 3538" d="M458.933,376.132V361.2H423.379V353.97h7.843v-6.3h-16v-7.227h61.312v7.227h-16v6.3h7.022v22.162ZM445.882,337.05q-10.344,0-16.321-3.631t-5.978-9.694q0-6.027,5.91-9.676t16.389-3.648q10.482,0,16.39,3.648t5.909,9.676q0,6.063-5.978,9.694t-16.321,3.631m0-19.833q-6.507,0-10.019,1.833t-3.51,4.676q0,2.877,3.613,4.677t9.916,1.8q6.439,0,9.985-1.78t3.545-4.693q0-2.877-3.477-4.692t-10.053-1.816m6.234,30.452H439.649v6.3h12.468Z" transform="translate(-64.475 -310.052)" fill="#fff"/>
      <path id="패스_3539" data-name="패스 3539" d="M541.879,344.591q-7.536.513-15.072.822v13.77h-8.358V345.756q-11.27.444-18.736.444l-1.2-7.431q24.183,0,42.782-1.268Zm-21.613-9.146q-7.64,0-12.383-3.322a10.262,10.262,0,0,1-4.744-8.8,10.142,10.142,0,0,1,4.812-8.768q4.811-3.288,12.315-3.288,7.706,0,12.382,3.237a10.593,10.593,0,0,1-.1,17.641q-4.777,3.306-12.279,3.306M508.276,373.98V353.564h8.563v13.188h38.57v7.228Zm11.989-56.072a10.946,10.946,0,0,0-6.252,1.575,4.572,4.572,0,0,0-2.312,3.836,4.641,4.641,0,0,0,2.262,3.905,10.893,10.893,0,0,0,6.3,1.575,10.744,10.744,0,0,0,6.268-1.609,4.662,4.662,0,0,0,2.3-3.871,4.544,4.544,0,0,0-2.211-3.922,11.348,11.348,0,0,0-6.353-1.489m24.9,42.3v-4.761H532.391V348.8h12.776V310H553.8V360.21Z" transform="translate(-77.409 -309.991)" fill="#fff"/>
    </g>
  </g>
</svg>
