<svg id="logotype-a-02" xmlns="http://www.w3.org/2000/svg" width="300" height="299.999" viewBox="0 0 300 299.999">
  <path id="패스_3525" data-name="패스 3525" d="M236.149,12.013A81.353,81.353,0,0,0,223.6,18.119c-3.121,1.924-6.117,4.077-7.995,5.426-2.5,1.794-4.441,3.288-5.96,4.457-2.6,2-4.376,3.37-6.686,5.33-1.936,1.644-4.114,3.491-6.734,6.153-1.62,1.647-3.008,3.251-5.718,6.4-3.22,3.736-5.486,6.483-6.008,7.122-1.862,2.279-3.2,3.909-4.892,6.154-.9,1.188-3.01,3.992-5.281,7.461-2.254,3.441-3.762,6.217-6.687,11.629-3.124,5.781-4.686,8.672-6.492,12.791-2.023,4.614-3.281,8.291-3.779,9.786a138.014,138.014,0,0,0-4.071,15.989c-.564,2.737-2.035,9.873-2.809,16.281-1.984,16.387.286,30.421,1.84,39.633a147.742,147.742,0,0,0,8.237,30.911,144.7,144.7,0,0,0,14.244,27.327,147.243,147.243,0,0,0,18.315,22.385A160.968,160.968,0,0,0,213.474,270.4,141.835,141.835,0,0,0,234.7,283.2a136.231,136.231,0,0,0,22,8.43c2.252.645,5.5,1.512,27.714,4.942,17.825,2.752,22.674.969,22.674.969s-6.249-13.592-7.461-15.65a103.266,103.266,0,0,0-9.715-13.436l-3.949-4.927-8.43-.678a105.7,105.7,0,0,1-17.152-3.2c-7.034-1.973-11.638-4.289-19.864-8.43A138.632,138.632,0,0,1,221.9,240.462,130.362,130.362,0,0,1,205.625,226.9c-5.446-5.2-12.109-11.555-18.9-21.415a121.286,121.286,0,0,1-14.05-27.715,150.033,150.033,0,0,1-6.977-25.776,131.941,131.941,0,0,1-2.423-25.872,121.3,121.3,0,0,1,4.749-32.947,119.7,119.7,0,0,1,11.725-26.357,132.742,132.742,0,0,1,14.535-20.834,133.68,133.68,0,0,1,12.4-12.4c4.566-4.018,8.264-6.734,12.307-9.69,10.7-7.823,17.152-11.871,17.152-11.871" transform="translate(-149.712 1.895)" fill="#fff"/>
  <path id="패스_3526" data-name="패스 3526" d="M190.567,126.753s.149,11.807,2.325,20.544a110.884,110.884,0,0,0,11.339,29.167c8.541,15.1,18.466,24.275,24.807,30.039a125.406,125.406,0,0,0,21.22,15.5,78.3,78.3,0,0,0,15.6,6.784s-4.807-8.509-11.627-22.966A178.1,178.1,0,0,1,244.106,180S233.8,175.143,219.347,163a95.967,95.967,0,0,1-19.864-21.61c-5.56-8.5-8.916-14.632-8.916-14.632" transform="translate(-143.001 19.955)" fill="#fff"/>
  <path id="패스_3527" data-name="패스 3527" d="M238.209,124.695a14.9,14.9,0,1,1-14.9-14.9,14.9,14.9,0,0,1,14.9,14.9" transform="translate(-140.141 17.281)" fill="#fff"/>
  <path id="패스_3528" data-name="패스 3528" d="M263.842,86.693a172.51,172.51,0,0,0-7.414,16.935c-4.345,12.767-6.517,19.15-7.921,27.688a122.113,122.113,0,0,0-1.235,28.708,130.912,130.912,0,0,0,6.1,30.307,119.159,119.159,0,0,0,9.3,23.4c3.947,7.353,7.778,12.448,12.791,19.113a177.258,177.258,0,0,0,14.172,17.079c5.357,5.626,6.625,6.129,9.23,9.883,6.154,8.871,7.631,15.917,7.631,15.917s4.777-14.492,4-29.8c-.1-2.073-.592-10.485-4-24.71-2.865-11.967-6.858-22.572-14.73-43.291-5.124-13.492-7.686-20.237-10.271-25.583-3-6.205-6.147-11.875-10.513-22.239-2.656-6.3-4-9.529-4.8-13.179-1.469-6.732-1.612-13.923-1.744-20.542a77.134,77.134,0,0,0-.605-9.691" transform="translate(-133.771 13.652)" fill="#fff"/>
  <path id="패스_3529" data-name="패스 3529" d="M281.452,42.111a191.346,191.346,0,0,0,7.268,27.472c3.293,9.748,8.733,18.841,19.477,36.63,9.558,15.824,10.675,16.179,19.478,31.251,9.557,16.364,12.941,24,15.262,29.942,3.379,8.657,5.809,14.887,6.977,23.839,1.891,14.5-.867,25.9-2.615,32.849-2.594,10.306-6.019,17.036-11.919,28.635-4.686,9.21-12.791,19.622-12.791,19.622a144.669,144.669,0,0,0,1.454-32.994c-.878-13.329-5.237-24-13.954-45.351-5.639-13.809-6.315-13.1-16.716-37.5-3.558-8.347-6.947-16.569-10.61-27.181-3.3-9.559-4.952-14.338-5.959-19.041-2.912-13.575-1.962-24.176-.147-42.734,1.046-10.681,4.8-25.437,4.8-25.437" transform="translate(-129.137 6.634)" fill="#fff"/>
  <path id="패스_3530" data-name="패스 3530" d="M336.326,131.117a253.014,253.014,0,0,1,11.919,22.53c7.2,15.334,7.993,26.164,7.993,26.164s15.619-21.33,20.64-40.845c1.848-7.179,7.417-31.153.146-58.431a47.314,47.314,0,0,0-6.25-13.808,67.907,67.907,0,0,1-4.361,26.89c-3.439,9.077-9.01,15.526-12.356,19.332a202.329,202.329,0,0,1-17.732,18.17" transform="translate(-119.009 10.505)" fill="#fff"/>
  <path id="패스_3531" data-name="패스 3531" d="M361.021,236.345a246.661,246.661,0,0,1-8.819,25.1c-7.4,17.157-17.539,25.776-17.539,25.776s21.368-8.425,38.858-23.451A161.133,161.133,0,0,0,404.626,228.3a147.282,147.282,0,0,0,18.314-42.734,151.523,151.523,0,0,0,3.974-41.667A153.221,153.221,0,0,0,414.7,89.247c-9.742-22.012-22.582-35.843-29.458-43.123A153.176,153.176,0,0,0,360.826,25,149.441,149.441,0,0,0,285.34,0s17.625,1.384,40.02,10.464a136.465,136.465,0,0,1,33.432,19.09,129.268,129.268,0,0,1,21.8,22.288c6.742,8.532,17.269,22.114,22.967,42.153a126.579,126.579,0,0,1,3.779,19.961A156.814,156.814,0,0,1,408.31,144a126.093,126.093,0,0,1-8.916,39.633c-3.108,7.632-9.081,22.3-22.384,35.95-7.4,7.591-15.989,16.764-15.989,16.764" transform="translate(-127.039 0)" fill="#fff"/>
  <path id="패스_3532" data-name="패스 3532" d="M345.3,85.748a14.9,14.9,0,1,1-14.9-14.9,14.9,14.9,0,0,1,14.9,14.9" transform="translate(-122.668 11.154)" fill="#fff"/>
</svg>
