<svg xmlns="http://www.w3.org/2000/svg" width="875.002" height="472.872" viewBox="0 0 875.002 472.872">
  <g id="img_diagram03" transform="translate(-1047 -1003.564)">
    <path id="빼기_17" data-name="빼기 17" d="M10427,3721a173.257,173.257,0,0,1-34.664-3.494,171.074,171.074,0,0,1-61.5-25.88,172.523,172.523,0,0,1-62.316-75.677,171.264,171.264,0,0,1-10.021-32.287,173.692,173.692,0,0,1,0-69.328,171.03,171.03,0,0,1,25.88-61.5,172.486,172.486,0,0,1,75.677-62.316,171.074,171.074,0,0,1,32.286-10.024,173.692,173.692,0,0,1,69.328,0,171.087,171.087,0,0,1,61.5,25.882,172.5,172.5,0,0,1,62.316,75.674,171.007,171.007,0,0,1,10.023,32.287,173.692,173.692,0,0,1,0,69.328,170.987,170.987,0,0,1-10.023,32.287c-.27.638-.529,1.241-.793,1.843l-5.243-3.1A164.525,164.525,0,0,0,10593,3549c0-91.532-74.467-166-166-166s-166,74.467-166,166,74.468,166,166,166a165.1,165.1,0,0,0,90.861-27.133l3.093,5.229A171.325,171.325,0,0,1,10427,3721Z" transform="translate(12177.002 4789.001) rotate(180)" fill="#00287a"/>
    <g id="그룹_12523" data-name="그룹 12523">
      <path id="빼기_16" data-name="빼기 16" d="M10427,3721a173.257,173.257,0,0,1-34.664-3.494,171.074,171.074,0,0,1-61.5-25.88,172.523,172.523,0,0,1-62.316-75.677,171.264,171.264,0,0,1-10.021-32.287,173.692,173.692,0,0,1,0-69.328,171.03,171.03,0,0,1,25.88-61.5,172.486,172.486,0,0,1,75.677-62.316,171.074,171.074,0,0,1,32.286-10.024,173.692,173.692,0,0,1,69.328,0,171.087,171.087,0,0,1,61.5,25.882,172.5,172.5,0,0,1,62.316,75.674,171.007,171.007,0,0,1,10.023,32.287,173.692,173.692,0,0,1,0,69.328,170.987,170.987,0,0,1-10.023,32.287c-.27.638-.529,1.241-.793,1.843l-5.243-3.1A164.525,164.525,0,0,0,10593,3549c0-91.532-74.467-166-166-166s-166,74.467-166,166,74.468,166,166,166a165.1,165.1,0,0,0,90.861-27.133l3.093,5.229A171.325,171.325,0,0,1,10427,3721Z" transform="translate(-9208 -2309.001)" fill="#00287a"/>
      <path id="다각형_3" data-name="다각형 3" d="M12,0,24,21H0Z" transform="translate(1316.939 1359.09) rotate(45)" fill="#00287a"/>
    </g>
    <g id="그룹_12524" data-name="그룹 12524" transform="translate(-0.001)">
      <path id="빼기_19" data-name="빼기 19" d="M10477,3740.619h0v-6.31a166.022,166.022,0,0,0,0-316.615v-6.311a171.174,171.174,0,0,1,46.169,21.992,172.468,172.468,0,0,1,62.316,75.677,170.956,170.956,0,0,1,10.022,32.284,173.655,173.655,0,0,1,0,69.33,171.073,171.073,0,0,1-25.879,61.5,171.852,171.852,0,0,1-92.628,68.452Zm-100,0h0a171.011,171.011,0,0,1-46.166-21.991,172.548,172.548,0,0,1-62.316-75.674,171.413,171.413,0,0,1-10.022-32.287,173.8,173.8,0,0,1,0-69.33,171.064,171.064,0,0,1,25.882-61.5,172.429,172.429,0,0,1,75.677-62.316,171.316,171.316,0,0,1,16.947-6.135v6.311a166.022,166.022,0,0,0,0,316.613v6.31Z" transform="matrix(0.602, -0.799, 0.799, 0.602, -7646.063, 7415.283)" fill="#00287a"/>
      <path id="다각형_5" data-name="다각형 5" d="M12,0,24,21H0Z" transform="translate(1589.939 1354.09) rotate(45)" fill="#00287a"/>
    </g>
    <text id="상품계획" transform="translate(1219 1270)" fill="#ff154c" font-size="26" font-family="NotoSansCJKkr-Regular, Noto Sans CJK KR" letter-spacing="-0.03em"><tspan x="-46.67" y="0">상품계획</tspan></text>
    <text id="내용_구조계획" data-name="내용 &amp; 구조계획" transform="translate(1484 1270)" fill="#ff154c" font-size="26" font-family="NotoSansCJKkr-Regular, Noto Sans CJK KR" letter-spacing="-0.03em"><tspan x="-83.304" y="0">내용 &amp; 구조계획</tspan></text>
    <text id="마케팅" transform="translate(1759 1270)" fill="#ff154c" font-size="26" font-family="NotoSansCJKkr-Regular, Noto Sans CJK KR" letter-spacing="-0.03em"><tspan x="-35.1" y="0">마케팅</tspan></text>
    <text id="학습수요_분석_교육_Theme_Research" data-name="학습수요 분석
교육 Theme Research" transform="translate(1218 1301)" fill="#00287a" font-size="20" font-family="NotoSansCJKkr-Regular, Noto Sans CJK KR"><tspan x="-57.44" y="0">학습수요 분석</tspan><tspan x="-97.69" y="26">교육 Theme Research</tspan></text>
    <text id="교수_설계_Creative_Planning" data-name="교수 설계
Creative Planning" transform="translate(1484 1301)" fill="#00287a" font-size="20" font-family="NotoSansCJKkr-Regular, Noto Sans CJK KR"><tspan x="-39.04" y="0">교수 설계</tspan><tspan x="-82.01" y="26">Creative Planning</tspan></text>
    <text id="서비스_패키지_기획_서비스_채널_기획" data-name="서비스 패키지 기획
서비스 채널 기획" transform="translate(1763 1301)" fill="#00287a" font-size="20" font-family="NotoSansCJKkr-Regular, Noto Sans CJK KR"><tspan x="-78.08" y="0">서비스 패키지 기획</tspan><tspan x="-68.88" y="26">서비스 채널 기획</tspan></text>
    <g id="그룹_12525" data-name="그룹 12525" transform="translate(-61.298 159.208)">
      <g id="그룹_3982" data-name="그룹 3982" transform="translate(1250 1000.791)">
        <path id="패스_1453" data-name="패스 1453" d="M633.669,326.484a30.4,30.4,0,1,0,30.4,30.4h-30.4Z" transform="translate(-603.269 -326.484)" fill="#00287a"/>
      </g>
      <g id="그룹_3983" data-name="그룹 3983" transform="translate(1284.2 996.992)" opacity="0.25">
        <path id="패스_1454" data-name="패스 1454" d="M616.51,325.013v30.4h30.4A30.4,30.4,0,0,0,616.51,325.013Z" transform="translate(-616.51 -325.013)" fill="#00287a"/>
      </g>
    </g>
    <g id="그룹_12526" data-name="그룹 12526" transform="translate(5.92)">
      <g id="그룹_5536" data-name="그룹 5536" transform="translate(1752.952 1188.401)">
        <path id="패스_3349" data-name="패스 3349" d="M238.921,2338.717a14.981,14.981,0,1,0,14.986,14.976A14.983,14.983,0,0,0,238.921,2338.717Zm0,27.636a12.658,12.658,0,1,1,12.664-12.66A12.662,12.662,0,0,1,238.921,2366.353Z" transform="translate(-223.937 -2338.716)" fill="#00287a"/>
      </g>
      <g id="그룹_5537" data-name="그룹 5537" transform="translate(1759.823 1196.913)">
        <path id="패스_3350" data-name="패스 3350" d="M242.8,2343.887l-1.912-1.912s-8.948,9.149-9.15,9.149-3.255-3.253-3.255-3.253l-1.912,1.916,5.168,5.123Z" transform="translate(-226.567 -2341.974)" fill="#00287a"/>
      </g>
      <path id="패스_3351" data-name="패스 3351" d="M234.227,2328.712a6.718,6.718,0,1,1-6.715-6.722A6.724,6.724,0,0,1,234.227,2328.712Z" transform="translate(1523.94 -1177.29)" fill="#00287a"/>
      <g id="그룹_5538" data-name="그룹 5538" transform="translate(1735.079 1160.311)">
        <path id="패스_3352" data-name="패스 3352" d="M223.527,2345.861v9.931l.024.026a3.8,3.8,0,0,0,7.577.386c-.253-.157-.525-.285-.771-.444A16.529,16.529,0,0,1,223.527,2345.861Z" transform="translate(-206.725 -2299.105)" fill="#00287a"/>
        <path id="패스_3353" data-name="패스 3353" d="M240.764,2357.2c.243-.162.515-.28.768-.429l0-20.378h1.842v15.368h.008v.026a2.833,2.833,0,0,0,5.667,0v-16.553c-.622-7.373-9.17-7.266-9.17-7.266H226.4c-9.646.183-9.306,7.266-9.306,7.266l0,16.527h.013a1.006,1.006,0,0,0-.01.117,2.837,2.837,0,1,0,5.675,0c0-.034-.01-.076-.01-.117h.01v-15.3h1.769l-.018,48.158a3.833,3.833,0,0,0,7.666,0l-.005-31.074H233.9v13.572A16.494,16.494,0,0,1,240.764,2357.2Z" transform="translate(-217.096 -2327.964)" fill="#00287a"/>
      </g>
    </g>
    <g id="그룹_12527" data-name="그룹 12527" transform="translate(180 -25.763)">
      <g id="그룹_4145" data-name="그룹 4145" transform="translate(1289.866 1185.663)">
        <path id="패스_1509" data-name="패스 1509" d="M704.213,410.663v29.583h29.575V410.663Zm17.075,24.3h-2.5v-16.72h-.057l-3.33,1.8-.5-1.971,4.179-2.238h2.208Z" transform="translate(-704.213 -410.663)" fill="#ff154c"/>
      </g>
      <g id="그룹_4148" data-name="그룹 4148" transform="translate(1266 1216.955)">
        <g id="그룹_4146" data-name="그룹 4146" transform="translate(43.558)">
          <path id="패스_1510" data-name="패스 1510" d="M745.171,422.128H711.428v29.447h33.743ZM727.3,446.82a9.681,9.681,0,0,1-4.976-1.3l.707-1.973a8.845,8.845,0,0,0,4.233,1.182c3.3,0,4.356-2.091,4.326-3.709-.027-2.677-2.437-3.824-4.943-3.824h-1.441v-1.946h1.441c1.881,0,4.269-.972,4.269-3.234,0-1.534-.969-2.888-3.357-2.888a7.028,7.028,0,0,0-3.829,1.264l-.7-1.883a9.265,9.265,0,0,1,5.027-1.471c3.769,0,5.475,2.235,5.475,4.564,0,2-1.2,3.676-3.529,4.531v.063a4.956,4.956,0,0,1,4.266,4.885C734.275,444.14,731.863,446.82,727.3,446.82Z" transform="translate(-711.428 -422.128)" fill="#00287a"/>
        </g>
        <g id="그룹_4147" data-name="그룹 4147" transform="translate(0)">
          <path id="패스_1511" data-name="패스 1511" d="M702.827,422.128h-7.358v29.581H725.05l2.658.019v-29.6Zm14.87,24.526H705.48v-1.586l2.031-1.973c4.886-4.651,7.126-7.124,7.126-10.006,0-1.941-.917-3.739-3.772-3.739a6.535,6.535,0,0,0-4.064,1.616l-.821-1.823a8.486,8.486,0,0,1,5.385-1.943c4.127,0,5.857,2.828,5.857,5.562,0,3.532-2.557,6.392-6.594,10.276l-1.5,1.411v.06H717.7Z" transform="translate(-695.469 -422.128)" fill="#438dff"/>
        </g>
      </g>
    </g>
  </g>
</svg>
