<svg xmlns="http://www.w3.org/2000/svg" width="1800" height="1105" viewBox="0 0 1800 1105">
  <g id="그룹_12569" data-name="그룹 12569" transform="translate(-380 -5679)">
    <g id="사각형_12791" data-name="사각형 12791" transform="translate(380 6356)" fill="#fff" stroke="#bfbfbf" stroke-width="1">
      <rect width="432" height="428" stroke="none"/>
      <rect x="0.5" y="0.5" width="431" height="427" fill="none"/>
    </g>
    <g id="사각형_12792" data-name="사각형 12792" transform="translate(836 6356)" fill="#fff" stroke="#bfbfbf" stroke-width="1">
      <rect width="432" height="428" stroke="none"/>
      <rect x="0.5" y="0.5" width="431" height="427" fill="none"/>
    </g>
    <g id="사각형_12793" data-name="사각형 12793" transform="translate(1292 6356)" fill="#fff" stroke="#bfbfbf" stroke-width="1">
      <rect width="432" height="428" stroke="none"/>
      <rect x="0.5" y="0.5" width="431" height="427" fill="none"/>
    </g>
    <g id="사각형_12794" data-name="사각형 12794" transform="translate(1748 6356)" fill="#fff" stroke="#bfbfbf" stroke-width="1">
      <rect width="432" height="428" stroke="none"/>
      <rect x="0.5" y="0.5" width="431" height="427" fill="none"/>
    </g>
    <text id="마케팅부" transform="translate(596 6514)" fill="#00287a" font-size="34" font-family="NotoSansCJKkr-Regular, Noto Sans CJK KR"><tspan x="-62.56" y="0">마케팅부</tspan></text>
    <text id="인사_총무팀" data-name="인사/총무팀" transform="translate(1052 6514)" fill="#00287a" font-size="34" font-family="NotoSansCJKkr-Regular, Noto Sans CJK KR"><tspan x="-84.864" y="0">인사/총무팀</tspan></text>
    <text id="교육_개발팀" data-name="교육 개발팀" transform="translate(1508 6514)" fill="#00287a" font-size="34" font-family="NotoSansCJKkr-Regular, Noto Sans CJK KR"><tspan x="-82.008" y="0">교육 개발팀</tspan></text>
    <text id="교육_운영팀" data-name="교육 운영팀" transform="translate(1964 6514)" fill="#00287a" font-size="34" font-family="NotoSansCJKkr-Regular, Noto Sans CJK KR"><tspan x="-82.008" y="0">교육 운영팀</tspan></text>
    <circle id="타원_12" data-name="타원 12" cx="164.5" cy="164.5" r="164.5" transform="translate(1116 5679)" fill="#438dff"/>
    <text id="CEO" transform="translate(1281 5870)" fill="#fff" font-size="60" font-family="NotoSansCJKkr-Regular, Noto Sans CJK KR" letter-spacing="-0.025em"><tspan x="-57.54" y="0">CEO</tspan></text>
    <circle id="타원_13" data-name="타원 13" cx="108" cy="108" r="108" transform="translate(488 6248)" fill="#00287a"/>
    <circle id="타원_14" data-name="타원 14" cx="108" cy="108" r="108" transform="translate(944 6248)" fill="#00287a"/>
    <circle id="타원_15" data-name="타원 15" cx="108" cy="108" r="108" transform="translate(1400 6248)" fill="#00287a"/>
    <circle id="타원_16" data-name="타원 16" cx="108" cy="108" r="108" transform="translate(1856 6248)" fill="#00287a"/>
    <g id="그룹_12007" data-name="그룹 12007" transform="translate(0 -56)">
      <line id="선_97" data-name="선 97" y2="120" transform="translate(596.5 6184)" fill="none" stroke="#bfbfbf" stroke-width="1"/>
      <line id="선_98" data-name="선 98" y2="120" transform="translate(1052 6184)" fill="none" stroke="#bfbfbf" stroke-width="1"/>
      <line id="선_101" data-name="선 101" y2="120" transform="translate(1280 6064)" fill="none" stroke="#bfbfbf" stroke-width="1"/>
      <line id="선_99" data-name="선 99" y2="120" transform="translate(1508 6184)" fill="none" stroke="#bfbfbf" stroke-width="1"/>
      <line id="선_100" data-name="선 100" y2="120" transform="translate(1964 6184)" fill="none" stroke="#bfbfbf" stroke-width="1"/>
      <line id="선_102" data-name="선 102" x2="1368" transform="translate(596.5 6184)" fill="none" stroke="#bfbfbf" stroke-width="1"/>
    </g>
    <g id="그룹_11875" data-name="그룹 11875" transform="translate(1900 6008)">
      <g id="사각형_32" data-name="사각형 32" fill="none" stroke="#191919" stroke-width="2">
        <rect width="280" height="76" rx="5" stroke="none"/>
        <rect x="1" y="1" width="278" height="74" rx="4" fill="none"/>
      </g>
      <text id="자문위원" transform="translate(140 52.5)" fill="#191919" font-size="34" font-family="NotoSansCJKkr-Light, Noto Sans CJK KR" font-weight="300"><tspan x="-62.56" y="0">자문위원</tspan></text>
    </g>
    <g id="그룹_12008" data-name="그룹 12008" transform="translate(-280 4524)">
      <g id="사각형_32-2" data-name="사각형 32" transform="translate(1876 1484)" fill="none" stroke="#191919" stroke-width="2">
        <rect width="280" height="76" rx="5" stroke="none"/>
        <rect x="1" y="1" width="278" height="74" rx="4" fill="none"/>
      </g>
      <text id="협력업체" transform="translate(2016 1536.5)" fill="#191919" font-size="34" font-family="NotoSansCJKkr-Light, Noto Sans CJK KR" font-weight="300"><tspan x="-62.56" y="0">협력업체</tspan></text>
    </g>
    <text id="홍보마케팅_영업관리" data-name="홍보마케팅
영업관리" transform="translate(596 6584)" fill="#767676" font-size="26" font-family="NotoSansCJKkr-Light, Noto Sans CJK KR" font-weight="300"><tspan x="-59.8" y="0">홍보마케팅</tspan><tspan x="-47.84" y="46">영업관리</tspan></text>
    <text id="인사_노무_총무" data-name="인사/노무
총무" transform="translate(1052 6584)" fill="#767676" font-size="26" font-family="NotoSansCJKkr-Light, Noto Sans CJK KR" font-weight="300"><tspan x="-52.962" y="0">인사/노무</tspan><tspan x="-23.92" y="46">총무</tspan></text>
    <text id="고객_Needs_수집_분석_및_관리_컨텐츠_교안_개발" data-name="고객 Needs
수집/분석 및 관리
컨텐츠 교안 개발" transform="translate(1508 6584)" fill="#767676" font-size="26" font-family="NotoSansCJKkr-Light, Noto Sans CJK KR" font-weight="300"><tspan x="-63.726" y="0">고객 Needs</tspan><tspan x="-94.614" y="46">수집/분석 및 관리</tspan><tspan x="-89.492" y="92">컨텐츠 교안 개발</tspan></text>
    <text id="교육운영_학습자_교육지원_교육_행정업무_온라인_학습_지원" data-name="교육운영
학습자 교육지원
교육 행정업무
온라인 학습 지원" transform="translate(1964 6584)" fill="#767676" font-size="26" font-family="NotoSansCJKkr-Light, Noto Sans CJK KR" font-weight="300"><tspan x="-47.84" y="0">교육운영</tspan><tspan x="-86.606" y="46">학습자 교육지원</tspan><tspan x="-74.646" y="92">교육 행정업무</tspan><tspan x="-89.492" y="138">온라인 학습 지원</tspan></text>
    <path id="crop" d="M665.694,672.266V616.847l6.215-6.193-2.41-2.417-6.025,6h-55.8V604h-3.414v10.242H594v3.414h10.262V675.68H662.28v10.255h3.414V675.68H679.35v-3.414Zm-5.644-54.61-52.373,52.2v-52.2ZM610.1,672.266l52.18-52.015v52.015Z" transform="translate(871 5711)" fill="#fff"/>
    <path id="link" d="M421.408,770.361l-3.843-3.843a15.637,15.637,0,0,1,0-22.082L438.2,723.793a15.628,15.628,0,0,1,22.076,0l3.841,3.843-2.316,2.318-3.843-3.845a12.349,12.349,0,0,0-17.443,0l-20.635,20.644a12.359,12.359,0,0,0,0,17.448l3.843,3.843a12.332,12.332,0,0,0,17.443,0L454.9,754.307l2.316,2.318-13.733,13.736a15.606,15.606,0,0,1-22.075,0Zm26.219-26.23,2.316-2.317a12.347,12.347,0,0,0,17.446,0l20.634-20.641a12.355,12.355,0,0,0,0-17.449l-3.843-3.842a12.347,12.347,0,0,0-17.444,0l-14.56,14.565-2.316-2.317,14.56-14.565a15.623,15.623,0,0,1,22.076,0l3.843,3.842a15.639,15.639,0,0,1,0,22.083L469.7,744.131a15.627,15.627,0,0,1-22.078,0Z" transform="translate(1509.999 5622.002)" fill="#fff"/>
    <path id="gift" d="M742.159,712.058a12.594,12.594,0,1,0-19.341-15.54,12.6,12.6,0,1,0-19.341,15.54H685v59.878h75.635V712.058Zm15.325,3.151v25.212h-33.09V715.21h2.013l7.649,13.388,2.736-1.563-6.757-11.824Zm-34.666-6.278,1.787,3.127h-3.573Zm11.03-15.779a9.453,9.453,0,1,1-9.454,9.454A9.465,9.465,0,0,1,733.848,693.152Zm-31.515,9.454a9.454,9.454,0,1,1,9.454,9.451A9.465,9.465,0,0,1,702.333,702.607Zm13.268,12.6-6.757,11.824,2.736,1.563,7.649-13.388h2.013v25.212H688.151V715.21Zm-27.449,28.363h33.091v25.212H688.151Zm36.242,25.212V743.573h33.09v25.212Z" transform="translate(-127 5624.999)" fill="#fff"/>
    <path id="cience" d="M838.408,554.968c8.032-8.267,11.626-16.312,8.614-21.276-1.2-1.979-3.966-4.338-10.323-4.338a43.241,43.241,0,0,0-11.957,2.01C821.822,520.8,816.958,514,811.343,514c-5.547,0-10.362,6.635-13.292,16.982a41.282,41.282,0,0,0-10.622-1.629c-6.357,0-9.123,2.359-10.325,4.338-2.415,3.978-.8,9.917,4.558,16.722a57.385,57.385,0,0,0,4.043,4.567c-8.025,8.261-11.613,16.3-8.6,21.266,1.2,1.978,3.968,4.337,10.323,4.337a41.391,41.391,0,0,0,10.625-1.629c2.929,10.346,7.744,16.981,13.291,16.981,5.616,0,10.48-6.8,13.4-17.362a43.224,43.224,0,0,0,11.958,2.01c6.355,0,9.122-2.359,10.322-4.337C850.034,571.281,846.44,563.233,838.408,554.968Zm-1.71-22.337c2.669,0,6.141.48,7.527,2.763,2,3.289-1.008,9.943-8.15,17.282a88.141,88.141,0,0,0-8.863-7.237,85.408,85.408,0,0,0-1.673-10.879A40.23,40.23,0,0,1,836.7,532.631Zm-17.871,33.486c-2.241,1.363-4.506,2.62-6.765,3.766-2.256-1.146-4.522-2.4-6.763-3.766-2.359-1.435-4.614-2.941-6.756-4.489-.139-2.148-.229-4.36-.229-6.661s.089-4.518.23-6.669c2.1-1.517,4.347-3.018,6.75-4.481,2.242-1.363,4.508-2.62,6.768-3.767,2.259,1.147,4.526,2.4,6.768,3.767,1.849,1.125,3.581,2.277,5.249,3.437.187,2.466.291,5.036.291,7.712s-.1,5.246-.291,7.71C822.412,563.838,820.678,564.992,818.828,566.117Zm4.835.813c-.321,2.646-.752,5.118-1.258,7.425-2.165-.765-4.4-1.669-6.658-2.7q2.39-1.291,4.78-2.741C821.6,568.266,822.642,567.6,823.663,566.93Zm-15.285,4.727a80.849,80.849,0,0,1-7.992,3.151,80.191,80.191,0,0,1-1.478-8.936c1.523,1.04,3.078,2.063,4.692,3.045Q805.985,570.37,808.378,571.657Zm-13.259-12.634c-1.676-1.331-3.265-2.685-4.733-4.05,1.442-1.346,3.033-2.7,4.733-4.062q-.074,2-.077,4.057T795.119,559.023Zm3.792-14.981a79.984,79.984,0,0,1,1.475-8.915,81.092,81.092,0,0,1,7.99,3.149c-1.593.861-3.191,1.773-4.781,2.741Q801.167,542.5,798.911,544.042Zm16.839-5.766c2.261-1.027,4.49-1.93,6.656-2.695.505,2.306.936,4.777,1.258,7.422q-1.531-1.009-3.132-1.986C818.941,540.05,817.343,539.138,815.75,538.277Zm11.763,11.477c2.276,1.738,4.369,3.486,6.219,5.214-1.85,1.727-3.944,3.474-6.219,5.212.083-1.7.131-3.442.131-5.212S827.6,551.46,827.513,549.754Zm-16.171-32.476c3.728,0,7.706,5.694,10.272,15.091a87.5,87.5,0,0,0-9.551,4.015,85.559,85.559,0,0,0-10.867-4.457C803.766,522.8,807.674,517.277,811.343,517.277ZM779.9,535.394c1.386-2.284,4.858-2.763,7.528-2.763a38.075,38.075,0,0,1,9.806,1.541,86.27,86.27,0,0,0-1.862,12.4,85.971,85.971,0,0,0-7.332,6.116,54.163,54.163,0,0,1-3.808-4.3C779.849,542.813,778.27,538.08,779.9,535.394Zm7.527,41.912c-2.669,0-6.141-.48-7.527-2.762-2-3.29,1.007-9.943,8.145-17.282a88.193,88.193,0,0,0,7.325,6.084,86.109,86.109,0,0,0,1.863,12.418A38.144,38.144,0,0,1,787.426,577.307Zm23.916,15.351c-3.669,0-7.576-5.518-10.146-14.647a85.491,85.491,0,0,0,10.867-4.458,87.748,87.748,0,0,0,9.551,4.016C819.048,586.966,815.071,592.658,811.343,592.658Zm32.883-18.114c-1.385,2.282-4.856,2.762-7.525,2.762a40.222,40.222,0,0,1-11.161-1.93,85.713,85.713,0,0,0,1.675-10.882,88.545,88.545,0,0,0,8.861-7.236C843.217,564.6,846.221,571.254,844.225,574.544Z" transform="translate(239.989 5801)" fill="#fff"/>
  </g>
</svg>
